<?xml version="1.0" encoding="utf-8"?>
<!-- Generator: Adobe Illustrator 27.3.1, SVG Export Plug-In . SVG Version: 6.00 Build 0)  -->
<svg version="1.1" id="Layer_1" xmlns="http://www.w3.org/2000/svg" xmlns:xlink="http://www.w3.org/1999/xlink" x="0px" y="0px"
	 viewBox="0 0 228 2" style="enable-background:new 0 0 228 2;" xml:space="preserve">
<style type="text/css">
	.st0{fill:#FF92B5;}
</style>
<path class="st0" d="M0.5,1.1L7.6,1l7.1-0.1l14.2-0.2c9.5-0.1,18.9-0.2,28.4-0.3c9.5-0.1,18.9-0.1,28.4-0.1l28.4,0l28.4,0
	c9.5,0,18.9,0.1,28.4,0.1c9.5,0.1,18.9,0.2,28.4,0.3l14.2,0.2l7.1,0.1l7.1,0.1l-7.1,0.1l-7.1,0.1L199,1.5
	c-9.5,0.1-18.9,0.2-28.4,0.3c-9.5,0.1-18.9,0.1-28.4,0.1l-28.4,0l-28.4,0c-9.5,0-18.9-0.1-28.4-0.1c-9.5-0.1-18.9-0.2-28.4-0.3
	L14.7,1.3L7.6,1.2L0.5,1.1z"/>
</svg>
