<svg xmlns="http://www.w3.org/2000/svg" width="100%" height="100%" viewBox="0 0 20 30" fill="none">
<path d="M6.53871 10.5492H1.42741C1.56466 7.57737 2.49767 5.23892 4.22639 3.53448C5.95481 1.83005 8.17347 0.977539 10.8823 0.977539C12.5546 0.977539 14.0306 1.33035 15.3103 2.03601C16.5897 2.74166 17.6134 3.75926 18.3807 5.08907C19.1484 6.41889 19.5322 7.7708 19.5322 9.1445C19.5322 10.7806 19.0667 12.5414 18.1364 14.4267C17.2061 16.3124 15.5045 18.5416 13.032 21.1138L9.94126 24.3731H19.7568V29.2246H0.678223V26.7145L9.1971 18.0231C11.2567 15.9378 12.6262 14.2614 13.3068 12.9937C13.9871 11.7265 14.3272 10.5806 14.3272 9.55643C14.3272 8.49526 13.9746 7.61767 13.2695 6.92486C12.5642 6.23174 11.6562 5.88517 10.5454 5.88517C9.42208 5.88517 8.48586 6.30366 7.73697 7.14006C6.98808 7.97705 6.58824 9.11345 6.53871 10.5492Z" fill="#ff92b5"></path>
</svg>