<svg xmlns="http://www.w3.org/2000/svg" width="100%" height="100%" viewBox="0 0 20 30" fill="none">
<path d="M6.85471 7.93381H1.81487C2.07702 5.89864 2.80793 4.26255 4.00699 3.02616C5.68048 1.30292 7.7851 0.441162 10.3209 0.441162C12.5816 0.441162 14.4769 1.15935 16.0071 2.59514C17.537 4.03122 18.3022 5.73595 18.3022 7.70874C18.3022 8.93259 17.9679 10.0502 17.3 11.0618C16.6315 12.0734 15.6605 12.8913 14.3865 13.5155C16.06 14.0151 17.3683 14.8862 18.3115 16.1285C19.2544 17.3712 19.7261 18.835 19.7261 20.521C19.7261 22.9934 18.8143 25.0886 16.9906 26.8053C15.1669 28.5226 12.8434 29.381 10.0208 29.381C7.34766 29.381 5.16812 28.5724 3.48209 26.9551C1.79606 25.3381 0.871352 23.1373 0.709229 20.3523H5.89901C6.12383 21.7758 6.62036 22.834 7.38858 23.5272C8.15681 24.2203 9.12778 24.5665 10.3021 24.5665C11.5259 24.5665 12.541 24.1734 13.3466 23.3866C14.1521 22.6 14.5549 21.6382 14.5549 20.5019C14.5549 19.2532 14.0115 18.1977 12.925 17.3363C11.8385 16.4745 10.2707 16.0315 8.22248 16.0065V11.511C9.48394 11.4113 10.4239 11.2146 11.0422 10.9209C11.6606 10.6275 12.1413 10.2248 12.4849 9.71286C12.8283 9.20094 13.0002 8.65768 13.0002 8.08306C13.0002 7.33383 12.7378 6.71265 12.2135 6.21922C11.6889 5.7261 11.0016 5.47924 10.1525 5.47924C9.40307 5.47924 8.722 5.70729 8.11023 6.1628C7.49786 6.61951 7.07954 7.20965 6.85471 7.93381Z" fill="#ff92b5"></path>
</svg>