<?xml version="1.0" encoding="utf-8"?>
<!-- Generator: Adobe Illustrator 27.3.1, SVG Export Plug-In . SVG Version: 6.00 Build 0)  -->
<svg version="1.1" id="Layer_1" xmlns="http://www.w3.org/2000/svg" xmlns:xlink="http://www.w3.org/1999/xlink" x="0px" y="0px"
	 viewBox="0 0 227 4" style="enable-background:new 0 0 227 4;" xml:space="preserve">
<style type="text/css">
	.st0{fill:#FF92B5;}
</style>
<path class="st0" d="M0,2l0.1,0c0,0,0,0,0,0c0,0,0,0,0,0h0L0,2z"/>
<path class="st0" d="M15,1.4l0.3,0c0.3,0,0.5,0.2,0.5,0.6c0,0.3-0.2,0.6-0.5,0.6c0,0,0,0,0,0l-0.3,0c-0.3,0-0.5-0.3-0.5-0.6
	C14.5,1.7,14.7,1.4,15,1.4z"/>
<path class="st0" d="M30.1,1l0.3,0c0.5,0,0.9,0.4,0.9,1c0,0.6-0.4,1-0.9,1.1c0,0,0,0,0,0l-0.3,0c-0.5,0-0.9-0.5-0.9-1
	C29.2,1.4,29.6,1,30.1,1z"/>
<path class="st0" d="M45.3,0.6l0.3,0c0.7,0,1.2,0.6,1.2,1.4c0,0.8-0.5,1.4-1.2,1.4c0,0,0,0,0,0l-0.3,0C44.6,3.4,44,2.7,44,2
	C44.1,1.2,44.6,0.6,45.3,0.6z"/>
<path class="st0" d="M60.4,0.4l0.3,0c0.8,0,1.5,0.7,1.5,1.6c0,0.9-0.6,1.6-1.4,1.7c0,0,0,0,0,0l-0.3,0c-0.8,0-1.4-0.8-1.4-1.6
	C59,1.1,59.6,0.4,60.4,0.4z"/>
<path class="st0" d="M75.5,0.2l0.3,0c0.9,0,1.6,0.8,1.6,1.8c0,1-0.7,1.8-1.6,1.8c0,0,0,0,0,0l-0.3,0c-0.9,0-1.6-0.8-1.6-1.8
	C73.9,1,74.6,0.2,75.5,0.2z"/>
<path class="st0" d="M90.7,0.1l0.3,0c1,0,1.7,0.9,1.7,1.9c0,1.1-0.8,1.9-1.7,1.9h0l-0.3,0c-1,0-1.7-0.9-1.7-1.9
	C88.9,0.9,89.7,0.1,90.7,0.1z"/>
<path class="st0" d="M105.8,0l0.3,0c1,0,1.8,0.9,1.8,2c0,1.1-0.8,2-1.8,2h0l-0.3,0c-1,0-1.8-0.9-1.8-2C104,0.9,104.8,0,105.8,0z"/>
<path class="st0" d="M120.9,0l0.3,0c1,0,1.8,0.9,1.8,2c0,1.1-0.8,2-1.8,2l-0.3,0c-1,0-1.8-0.9-1.8-2C119.1,0.9,119.9,0,120.9,0
	L120.9,0z"/>
<path class="st0" d="M136.1,0.1l0.3,0c1,0,1.7,0.9,1.7,2c0,1.1-0.8,1.9-1.7,1.9l-0.3,0c-1,0-1.7-0.9-1.7-1.9
	C134.3,0.9,135.1,0.1,136.1,0.1L136.1,0.1z"/>
<path class="st0" d="M151.2,0.2l0.3,0c0.9,0,1.6,0.8,1.6,1.8c0,1-0.7,1.8-1.6,1.8l-0.3,0c-0.9,0-1.6-0.8-1.6-1.8
	C149.5,1,150.3,0.2,151.2,0.2C151.2,0.2,151.2,0.2,151.2,0.2z"/>
<path class="st0" d="M166.3,0.4l0.3,0c0.8,0,1.4,0.8,1.4,1.7c0,0.9-0.6,1.6-1.4,1.6l-0.3,0c-0.8,0-1.5-0.7-1.5-1.6
	C164.8,1.1,165.5,0.4,166.3,0.4C166.3,0.4,166.3,0.4,166.3,0.4z"/>
<path class="st0" d="M181.5,0.6l0.3,0c0.7,0,1.2,0.6,1.2,1.4c0,0.7-0.5,1.3-1.2,1.4l-0.3,0c-0.7,0-1.2-0.6-1.3-1.4
	C180.2,1.3,180.7,0.6,181.5,0.6C181.4,0.6,181.4,0.6,181.5,0.6z"/>
<path class="st0" d="M196.6,1l0.3,0c0.5,0,0.9,0.5,0.9,1.1c0,0.6-0.4,1-0.9,1l-0.3,0c-0.5,0-0.9-0.4-0.9-1C195.6,1.4,196,1,196.6,1
	C196.6,1,196.6,1,196.6,1z"/>
<path class="st0" d="M211.7,1.4l0.3,0c0.3,0,0.5,0.3,0.5,0.6c0,0.3-0.2,0.6-0.5,0.6l-0.3,0c-0.3,0-0.5-0.2-0.5-0.6
	C211.2,1.7,211.4,1.4,211.7,1.4C211.7,1.4,211.7,1.4,211.7,1.4z"/>
<path class="st0" d="M226.9,2l0.1,0L226.9,2C226.8,2,226.8,2,226.9,2C226.8,2,226.8,2,226.9,2L226.9,2z"/>
</svg>
